<?xml version="1.0" encoding="utf-8"?>
<!-- Generator: Adobe Illustrator 24.3.0, SVG Export Plug-In . SVG Version: 6.00 Build 0)  -->
<svg version="1.1" id="Layer_1" xmlns="http://www.w3.org/2000/svg" xmlns:xlink="http://www.w3.org/1999/xlink" x="0px" y="0px"
	 viewBox="0 0 232.1 47.3" style="enable-background:new 0 0 232.1 47.3;" xml:space="preserve">
<style type="text/css">
	.st0{fill:#8C8C8C;}
	.st1{fill:#478ECC;}
	.st2{fill:#FFFFFF;}
</style>
<g>
	<path class="st0" d="M52.7,17.8H55l0.2,2.4h0.1c1.5-1.6,3.2-2.9,5.2-2.9c2.6,0,4,1.2,4.6,3.2c1.7-1.9,3.5-3.2,5.6-3.2
		c3.5,0,5.1,2.3,5.1,6.6v10.7h-2.8V24.3c0-3.1-1-4.5-3.1-4.5c-1.3,0-2.7,0.9-4.2,2.6v12.2h-2.8V24.3c0-3.1-1-4.5-3.1-4.5
		c-1.3,0-2.7,0.9-4.2,2.6v12.2h-2.8V17.8z"/>
	<path class="st0" d="M79.4,26.2c0-5.5,3.7-8.9,7.6-8.9c4.3,0,6.7,3.1,6.7,7.9c0,0.6-0.1,1.2-0.1,1.6H82.3c0.2,3.6,2.4,5.9,5.6,5.9
		c1.6,0,2.9-0.5,4.2-1.3l1,1.9c-1.5,1-3.3,1.7-5.6,1.7C83,35,79.4,31.7,79.4,26.2z M91.2,24.8c0-3.4-1.5-5.2-4.2-5.2
		c-2.4,0-4.5,1.9-4.8,5.2H91.2z"/>
	<path class="st0" d="M96.7,26.2c0-5.5,3.4-8.9,7.3-8.9c2,0,3.2,0.7,4.7,2l-0.1-2.9V9.9h2.8v24.7h-2.4l-0.2-2h-0.1
		c-1.3,1.3-3.1,2.4-5.1,2.4C99.4,35,96.7,31.8,96.7,26.2z M108.6,30.3v-8.8c-1.4-1.3-2.7-1.8-4.1-1.8c-2.7,0-4.8,2.6-4.8,6.4
		c0,4,1.7,6.4,4.6,6.4C105.8,32.6,107.2,31.9,108.6,30.3z"/>
	<path class="st1" d="M120.4,28c-0.3,0.8-0.5,1.5-0.8,2.1c-0.2,0.6-0.4,1.1-0.6,1.6c-0.2,0.5-0.3,0.8-0.4,1.2s-0.2,0.6-0.3,0.9
		c-0.1,0.3-0.3,0.5-0.4,0.7c-0.2,0.2-0.3,0.3-0.5,0.4S117,35,116.8,35c-0.2,0-0.4,0-0.7,0c-0.1,0-0.3,0-0.5,0c-0.2,0-0.4,0-0.6,0
		l-0.2-0.1c1-2.1,1.9-4.1,2.7-6c0.9-1.9,1.7-3.7,2.5-5.5c-0.2-0.3-0.3-0.5-0.3-0.7c0-0.3,0.3-0.5,0.8-0.5c1.5-3.2,2.8-6.1,3.9-8.6
		s2.2-4.5,3-6.2c0.1-0.2,0.2-0.3,0.3-0.4s0.3-0.2,0.4-0.2c0.2-0.1,0.3-0.1,0.5-0.1c0.2,0,0.3,0,0.5,0c0.2,0,0.5,0,0.7,0.1
		c0.2,0,0.5,0.1,0.7,0.2c0.5,2.8,1,5.3,1.4,7.5c0.4,2.2,0.8,4.2,1.2,6c0.4,1.7,0.7,3.3,1,4.6s0.6,2.4,0.9,3.3
		c0.3,0.9,0.6,1.7,0.9,2.3c0.3,0.6,0.6,1.1,0.9,1.4c0.3,0.3,0.7,0.6,1,0.7c0.4,0.1,0.7,0.2,1.2,0.2c0.3,0,0.6,0,0.8-0.1
		c0.3-0.1,0.6-0.2,0.9-0.3l0.3,1c-0.9,0.5-1.8,0.8-2.7,1.1s-1.6,0.4-2.2,0.4c-0.4,0-0.7-0.1-1-0.2c-0.3-0.1-0.6-0.4-0.9-0.7
		c-0.3-0.3-0.6-0.8-0.9-1.3c-0.3-0.6-0.6-1.3-0.9-2.1c-0.3-0.9-0.6-1.9-0.9-3.1c-0.3-1.2-0.6-2.6-1-4.1c-1.5,0-3,0.1-4.4,0.1
		s-3,0.1-4.5,0.2c-0.3,0.8-0.6,1.6-0.9,2.3C120.9,26.9,120.6,27.5,120.4,28z M130.6,22.1c-0.2-0.8-0.4-1.7-0.5-2.7s-0.4-2-0.6-3.1
		c-0.2-1.1-0.4-2.2-0.6-3.4c-0.2-1.2-0.4-2.4-0.6-3.6h-0.1c-1.2,2.4-2.2,4.7-3.1,6.9c-0.9,2.2-1.7,4.2-2.4,6c1.4,0,2.7-0.1,4-0.1
		C127.9,22.1,129.2,22.1,130.6,22.1z"/>
	<path class="st1" d="M143,17.8h2.4l0.2,1.9h0.1c1.5-1.3,3.4-2.4,5.4-2.4c4.3,0,6.7,3.4,6.7,8.6c0,5.7-3.4,9.1-7.3,9.1
		c-1.5,0-3.1-0.7-4.7-2l0.1,2.9v5.7H143V17.8z M154.8,26c0-3.7-1.3-6.2-4.4-6.2c-1.4,0-2.9,0.8-4.5,2.3v8.8c1.5,1.3,3,1.8,4.1,1.8
		C152.7,32.6,154.8,30.1,154.8,26z"/>
	<path class="st1" d="M160.8,17.8h2.4l0.2,1.9h0.1c1.5-1.3,3.4-2.4,5.4-2.4c4.3,0,6.7,3.4,6.7,8.6c0,5.7-3.4,9.1-7.3,9.1
		c-1.5,0-3.1-0.7-4.7-2l0.1,2.9v5.7h-2.8V17.8z M172.6,26c0-3.7-1.3-6.2-4.4-6.2c-1.4,0-2.9,0.8-4.5,2.3v8.8c1.5,1.3,3,1.8,4.1,1.8
		C170.6,32.6,172.6,30.1,172.6,26z"/>
	<path class="st1" d="M178.7,17.8h2.4l0.2,3.1h0.1c1.2-2.1,2.9-3.5,4.8-3.5c0.7,0,1.3,0.1,1.8,0.3l-0.5,2.5c-0.6-0.2-1-0.3-1.6-0.3
		c-1.4,0-3.1,1-4.3,3.9v10.8h-2.8V17.8z"/>
	<path class="st1" d="M190,12.5c0-1.1,0.9-1.8,2-1.8c1.1,0,2,0.7,2,1.8c0,1.1-0.9,1.8-2,1.8C190.9,14.3,190,13.5,190,12.5z
		 M190.5,17.8h2.8v16.8h-2.8V17.8z"/>
	<path class="st1" d="M196.5,32.7l1.4-1.9c1.5,1.2,2.9,2,5,2c2.2,0,3.3-1.2,3.3-2.6c0-1.7-2-2.5-3.9-3.2c-2.4-0.9-5-2-5-4.9
		c0-2.7,2.2-4.8,5.8-4.8c2.1,0,3.9,0.9,5.2,1.9l-1.4,1.8c-1.2-0.9-2.4-1.5-3.8-1.5c-2.1,0-3.1,1.1-3.1,2.4c0,1.6,1.8,2.2,3.7,2.9
		c2.4,0.9,5.1,1.9,5.1,5.1c0,2.7-2.2,5-6.1,5C200.4,35,198.1,34,196.5,32.7z"/>
	<path class="st1" d="M211.6,26.2c0-5.5,3.7-8.9,7.6-8.9c4.3,0,6.7,3.1,6.7,7.9c0,0.6-0.1,1.2-0.1,1.6h-11.3
		c0.2,3.6,2.4,5.9,5.6,5.9c1.6,0,2.9-0.5,4.2-1.3l1,1.9c-1.5,1-3.3,1.7-5.6,1.7C215.2,35,211.6,31.7,211.6,26.2z M223.4,24.8
		c0-3.4-1.5-5.2-4.2-5.2c-2.4,0-4.5,1.9-4.8,5.2H223.4z"/>
</g>
<g>
	<path class="st1" d="M35.1,34c6.1-6.1,6.1-15.9,0-21.9s-15.9-6.1-21.9,0s-5.9,15.7,0,21.9c6.5,6.9,14.7,4.9,26.7,5L35.1,34z"/>
	<path class="st1" d="M9.5,14.8l6.8-4.7L7.5,5.6C8.6,7,9.6,12.1,9.5,14.8z"/>
	<path class="st1" d="M37.4,14.8l-6.8-4.7l8.8-4.4C38.3,7,37.2,12.1,37.4,14.8z"/>
	<polygon class="st2" points="21.4,25 24.1,28.4 26.5,24.7 25.3,23.4 24.1,19.9 22.7,23.2 	"/>
	<g>
		<g>
			<circle class="st1" cx="15.4" cy="18.8" r="8.4"/>
			<path class="st2" d="M15.4,27.7c-4.9,0-8.9-4-8.9-8.9c0-4.9,4-8.9,8.9-8.9c4.9,0,8.9,4,8.9,8.9C24.3,23.7,20.3,27.7,15.4,27.7z
				 M15.4,10.8c-4.4,0-7.9,3.6-7.9,7.9s3.6,7.9,7.9,7.9c4.4,0,7.9-3.6,7.9-7.9S19.8,10.8,15.4,10.8z"/>
		</g>
		<g>
			<circle class="st1" cx="32.6" cy="18.8" r="8.4"/>
			<path class="st2" d="M32.6,27.7c-4.9,0-8.9-4-8.9-8.9c0-4.9,4-8.9,8.9-8.9c4.9,0,8.9,4,8.9,8.9C41.6,23.7,37.6,27.7,32.6,27.7z
				 M32.6,10.8c-4.4,0-7.9,3.6-7.9,7.9s3.6,7.9,7.9,7.9c4.4,0,7.9-3.6,7.9-7.9S37,10.8,32.6,10.8z"/>
		</g>
		<circle class="st2" cx="15.4" cy="18.8" r="5.6"/>
		<circle class="st2" cx="32.6" cy="18.8" r="5.6"/>
		<circle class="st0" cx="15.4" cy="18.8" r="3.3"/>
		<circle class="st0" cx="32.8" cy="18.8" r="3.3"/>
		<circle class="st2" cx="13.3" cy="16.4" r="1.4"/>
		<circle class="st2" cx="30.4" cy="16.4" r="1.4"/>
	</g>
</g>
</svg>
